<svg width="130" height="70" viewBox="0 0 130 70" fill="none" xmlns="http://www.w3.org/2000/svg">
<g clip-path="url(#clip0_2219_2)">
<path d="M-10.4251 16.4182C-21.1304 16.4183 -29.8087 24.7376 -29.8087 35C-29.8087 45.2625 -21.1303 53.5818 -10.4249 53.5818C0.280501 53.5818 8.95894 45.2625 8.95894 35.0005C8.95769 24.7383 0.279895 16.4195 -10.4251 16.4182Z" fill="black" stroke="black" stroke-width="31"/>
<path d="M39.3363 23H32.2481V46.3996H39.2831C46.7994 46.3996 51.5267 41.9212 51.5267 34.6985C51.5267 27.4758 46.8685 23 39.3363 23ZM39.2831 43.247H36.058V26.1553H39.2485C44.5182 26.1553 47.4907 29.3371 47.4907 34.6985C47.4907 40.0598 44.566 43.2549 39.2831 43.2549V43.247Z" fill="black"/>
<path d="M60.1809 29.1011C55.7939 29.1011 53.1432 31.5087 53.0023 34.8019H56.7086C56.8123 32.9008 58.0379 31.8481 60.1144 31.8481C62.268 31.8481 63.5708 33.036 63.5708 35.2951V35.8068L59.261 36.2364C55.4908 36.6447 52.428 37.9333 52.428 41.4227C52.428 44.5144 54.9086 46.7258 58.4607 46.7258C61.0104 46.7258 62.9167 45.4 63.6319 43.0587H63.7303V46.3864H67.3037V35.9871C67.2558 31.4106 64.5067 29.1011 60.1809 29.1011ZM63.5495 38.986C63.5495 42.2102 62.0207 44.008 59.3673 44.008C57.7322 44.008 56.3071 43.0905 56.3071 41.497C56.3071 39.9034 57.5992 39.0549 59.8406 38.8189L63.5495 38.3894V38.986Z" fill="black"/>
<path d="M77.7791 29.1011C75.2985 29.1011 73.5251 30.3924 72.8153 32.7629H72.7488V29.4405H69.1435V46.4102H72.8498V36.2231C72.8498 33.4417 73.9718 31.8826 76.2504 31.8826C78.5289 31.8826 79.6615 33.3091 79.6615 36.4591V46.3996H83.3572V35.3773C83.3572 31.6466 81.5227 29.1011 77.7791 29.1011Z" fill="black"/>
<path d="M93.168 43.9894C90.3471 43.9894 88.7811 41.4784 88.7811 37.9201C88.7811 34.3617 90.2434 31.8481 92.9978 31.8481C95.0052 31.8481 96.3957 33.1023 96.8052 35.2951H100.527C99.8813 31.2939 96.8902 29.1223 92.9074 29.1223C87.9436 29.1223 84.8488 33.3648 84.8488 37.9413C84.8488 42.6212 88.0393 46.7602 93.0377 46.7602C97.0258 46.7602 100.044 44.5224 100.69 40.5212H96.9195C96.5685 42.6689 95.1381 43.9894 93.168 43.9894Z" fill="black"/>
<path d="M109.783 29.1011C104.715 29.1011 101.822 33.2402 101.822 37.9201C101.822 42.6 104.784 46.739 109.846 46.739C113.997 46.739 116.65 44.5011 117.363 41.1523H113.656C113.247 42.5098 112.295 44.0027 110.088 44.0027C107.501 44.0027 105.701 42.2049 105.529 39.1212H117.682C118.197 33.2057 114.845 29.1011 109.783 29.1011ZM105.563 36.361C105.8 33.614 107.286 31.8534 109.783 31.8534C112.279 31.8534 113.725 33.6193 113.962 36.361H105.563Z" fill="black"/>
</g>
<defs>
<clipPath id="clip0_2219_2">
<rect width="130" height="70" fill="white"/>
</clipPath>
</defs>
</svg>
